<?xml version="1.0" encoding="UTF-8"?>
<svg xmlns="http://www.w3.org/2000/svg" viewBox="0 0 320 360">
  <!-- Casa principal -->
  <path d="M160 14 L280 118 H242 V238 H78 V118 H40 Z" fill="#2d7a2d"/>

  <!-- Swoosh grande (folha diagonal branca) -->
  <path d="M64 238
    C88 178, 148 102, 228 42
    C244 78, 226 116, 198 140
    C178 158, 155 178, 130 200
    C112 216, 86 232, 64 238 Z"
    fill="white" opacity="0.92"/>

  <!-- Nervura central da folha -->
  <path d="M68 234 C152 134 224 46"
    stroke="rgba(45,122,45,0.35)" stroke-width="1.5" fill="none"/>

  <!-- Brotos / folhas pequenas topo direito -->
  <path d="M228 42 C236 20 258 24 253 46 C240 43 228 42 Z" fill="#2d7a2d"/>
  <path d="M240 52 C256 28 278 42 268 60 C254 56 240 52 Z" fill="#2d7a2d"/>
  <path d="M250 34 C254 16 272 18 268 36 C258 34 250 34 Z" fill="#3a9a3a"/>

  <!-- Texto GREEN VILLAGE -->
  <text x="160" y="283"
    text-anchor="middle"
    font-family="Arial Black, 'Helvetica Neue', sans-serif"
    font-size="33"
    font-weight="900"
    fill="#2d7a2d"
    letter-spacing="1">GREEN VILLAGE</text>

  <!-- Texto MOBILE HOMES -->
  <text x="160" y="312"
    text-anchor="middle"
    font-family="Arial, Helvetica, sans-serif"
    font-size="13"
    font-weight="400"
    fill="#2d7a2d"
    letter-spacing="7">MOBILE HOMES</text>
</svg>
